HIERARCHY
ROOT Hips
{
    OFFSET   0.000000   0.000000   0.000000
    CHANNELS 6 Xposition Yposition Zposition Zrotation Xrotation Yrotation
    JOINT Chest
    {
        OFFSET   0.000000   8.007230   0.000000
        CHANNELS 3 Zrotation Xrotation Yrotation
        JOINT Chest2
        {
            OFFSET   0.000000  22.077100   0.000000
            CHANNELS 3 Zrotation Xrotation Yrotation
            JOINT Neck
            {
                OFFSET   0.000000  23.254800  -0.000021
                CHANNELS 3 Zrotation Xrotation Yrotation
                JOINT Head
                {
                    OFFSET   0.000000  14.370000   1.956610
                    CHANNELS 3 Zrotation Xrotation Yrotation
                    End Site
                    {
                        OFFSET   0.000000  19.566000   0.000000
                    }
                }
            }
            JOINT LeftCollar
            {
                OFFSET   3.911900  19.017000  -0.467063
                CHANNELS 3 Zrotation Xrotation Yrotation
                JOINT LeftShoulder
                {
                    OFFSET  10.383700   0.000000   0.000000
                    CHANNELS 3 Zrotation Xrotation Yrotation
                    JOINT LeftElbow
                    {
                        OFFSET  26.662100   0.001529   0.000325
                        CHANNELS 3 Zrotation Xrotation Yrotation
                        JOINT LeftWrist
                        {
                            OFFSET  28.869000  -0.000011  -0.000096
                            CHANNELS 3 Zrotation Xrotation Yrotation
                            JOINT LeftFinger0
                            {
                                OFFSET   2.044650  -2.323460   3.252850
                                CHANNELS 3 Zrotation Xrotation Yrotation
                                JOINT LeftFinger01
                                {
                                    OFFSET   3.088130   0.000000   0.000000
                                    CHANNELS 3 Zrotation Xrotation Yrotation
                                    JOINT LeftFinger02
                                    {
                                        OFFSET   2.639460   0.000000   0.000000
                                        CHANNELS 3 Zrotation Xrotation Yrotation
                                        End Site
                                        {
                                            OFFSET   2.582190   0.000000   0.000000
                                        }
                                    }
                                }
                            }
                            JOINT LeftFinger1
                            {
                                OFFSET   8.364480   0.000000   3.252850
                                CHANNELS 3 Zrotation Xrotation Yrotation
                                JOINT LeftFinger11
                                {
                                    OFFSET   4.646930   0.000000   0.000000
                                    CHANNELS 3 Zrotation Xrotation Yrotation
                                    JOINT LeftFinger12
                                    {
                                        OFFSET   2.323460   0.000000   0.000000
                                        CHANNELS 3 Zrotation Xrotation Yrotation
                                        End Site
                                        {
                                            OFFSET   2.273050   0.000000   0.000000
                                        }
                                    }
                                }
                            }
                            JOINT LeftFinger2
                            {
                                OFFSET   8.364480   0.000016   1.078090
                                CHANNELS 3 Zrotation Xrotation Yrotation
                                JOINT LeftFinger21
                                {
                                    OFFSET   5.111620   0.000000   0.000000
                                    CHANNELS 3 Zrotation Xrotation Yrotation
                                    JOINT LeftFinger22
                                    {
                                        OFFSET   2.788160   0.000017   0.000000
                                        CHANNELS 3 Zrotation Xrotation Yrotation
                                        End Site
                                        {
                                            OFFSET   2.727660   0.000000   0.000000
                                        }
                                    }
                                }
                            }
                            JOINT LeftFinger3
                            {
                                OFFSET   7.899780   0.000015  -1.078090
                                CHANNELS 3 Zrotation Xrotation Yrotation
                                JOINT LeftFinger31
                                {
                                    OFFSET   4.646920   0.000000   0.000000
                                    CHANNELS 3 Zrotation Xrotation Yrotation
                                    JOINT LeftFinger32
                                    {
                                        OFFSET   2.323470   0.000000   0.000000
                                        CHANNELS 3 Zrotation Xrotation Yrotation
                                        End Site
                                        {
                                            OFFSET   2.273050   0.000000   0.000000
                                        }
                                    }
                                }
                            }
                            JOINT LeftFinger4
                            {
                                OFFSET   7.435090   0.000000  -3.252850
                                CHANNELS 3 Zrotation Xrotation Yrotation
                                JOINT LeftFinger41
                                {
                                    OFFSET   3.717550   0.000000   0.000000
                                    CHANNELS 3 Zrotation Xrotation Yrotation
                                    JOINT LeftFinger42
                                    {
                                        OFFSET   1.858760   0.000000   0.000000
                                        CHANNELS 3 Zrotation Xrotation Yrotation
                                        End Site
                                        {
                                            OFFSET   1.818440   0.000000   0.000000
                                        }
                                    }
                                }
                            }
                        }
                    }
                }
            }
            JOINT RightCollar
            {
                OFFSET  -3.911900  19.017000  -0.467062
                CHANNELS 3 Zrotation Xrotation Yrotation
                JOINT RightShoulder
                {
                    OFFSET -10.383700   0.000015   0.000000
                    CHANNELS 3 Zrotation Xrotation Yrotation
                    JOINT RightElbow
                    {
                        OFFSET -26.662100   0.001341   0.000385
                        CHANNELS 3 Zrotation Xrotation Yrotation
                        JOINT RightWrist
                        {
                            OFFSET -28.869000   0.000025  -0.000080
                            CHANNELS 3 Zrotation Xrotation Yrotation
                            JOINT RightFinger0
                            {
                                OFFSET  -2.044650  -2.323490   3.252850
                                CHANNELS 3 Zrotation Xrotation Yrotation
                                JOINT RightFinger01
                                {
                                    OFFSET  -3.088130   0.000000   0.000000
                                    CHANNELS 3 Zrotation Xrotation Yrotation
                                    JOINT RightFinger02
                                    {
                                        OFFSET  -2.639460   0.000000   0.000000
                                        CHANNELS 3 Zrotation Xrotation Yrotation
                                        End Site
                                        {
                                            OFFSET  -2.582190   0.000000   0.000000
                                        }
                                    }
                                }
                            }
                            JOINT RightFinger1
                            {
                                OFFSET  -8.364480   0.000000   3.252850
                                CHANNELS 3 Zrotation Xrotation Yrotation
                                JOINT RightFinger11
                                {
                                    OFFSET  -4.646930   0.000000   0.000000
                                    CHANNELS 3 Zrotation Xrotation Yrotation
                                    JOINT RightFinger12
                                    {
                                        OFFSET  -2.323470   0.000000   0.000000
                                        CHANNELS 3 Zrotation Xrotation Yrotation
                                        End Site
                                        {
                                            OFFSET  -2.273050   0.000000   0.000000
                                        }
                                    }
                                }
                            }
                            JOINT RightFinger2
                            {
                                OFFSET  -8.364480   0.000000   1.078090
                                CHANNELS 3 Zrotation Xrotation Yrotation
                                JOINT RightFinger21
                                {
                                    OFFSET  -5.111610   0.000000   0.000000
                                    CHANNELS 3 Zrotation Xrotation Yrotation
                                    JOINT RightFinger22
                                    {
                                        OFFSET  -2.788160   0.000000   0.000000
                                        CHANNELS 3 Zrotation Xrotation Yrotation
                                        End Site
                                        {
                                            OFFSET  -2.727660   0.000000   0.000000
                                        }
                                    }
                                }
                            }
                            JOINT RightFinger3
                            {
                                OFFSET  -7.899780   0.000000  -1.078090
                                CHANNELS 3 Zrotation Xrotation Yrotation
                                JOINT RightFinger31
                                {
                                    OFFSET  -4.646920   0.000000   0.000000
                                    CHANNELS 3 Zrotation Xrotation Yrotation
                                    JOINT RightFinger32
                                    {
                                        OFFSET  -2.323470   0.000000   0.000000
                                        CHANNELS 3 Zrotation Xrotation Yrotation
                                        End Site
                                        {
                                            OFFSET  -2.273050   0.000000   0.000000
                                        }
                                    }
                                }
                            }
                            JOINT RightFinger4
                            {
                                OFFSET  -7.435090   0.000000  -3.252850
                                CHANNELS 3 Zrotation Xrotation Yrotation
                                JOINT RightFinger41
                                {
                                    OFFSET  -3.717550   0.000000   0.000000
                                    CHANNELS 3 Zrotation Xrotation Yrotation
                                    JOINT RightFinger42
                                    {
                                        OFFSET  -1.858770   0.000000   0.000000
                                        CHANNELS 3 Zrotation Xrotation Yrotation
                                        End Site
                                        {
                                            OFFSET  -1.818440   0.000000   0.000000
                                        }
                                    }
                                }
                            }
                        }
                    }
                }
            }
        }
    }
    JOINT LeftHip
    {
        OFFSET   9.783010   0.000000   0.000000
        CHANNELS 3 Zrotation Xrotation Yrotation
        JOINT LeftKnee
        {
            OFFSET   0.000070 -41.789100   0.000028
            CHANNELS 3 Zrotation Xrotation Yrotation
            JOINT LeftAnkle
            {
                OFFSET   0.000087 -41.133200  -0.000100
                CHANNELS 3 Zrotation Xrotation Yrotation
                JOINT LeftToe
                {
                    OFFSET   0.000000  -6.358960  14.674500
                    CHANNELS 3 Zrotation Xrotation Yrotation
                    End Site
                    {
                        OFFSET   0.000000   0.000000   3.913200
                    }
                }
            }
        }
    }
    JOINT RightHip
    {
        OFFSET  -9.783020   0.000000   0.000000
        CHANNELS 3 Zrotation Xrotation Yrotation
        JOINT RightKnee
        {
            OFFSET   0.000044 -41.789100  -0.000870
            CHANNELS 3 Zrotation Xrotation Yrotation
            JOINT RightAnkle
            {
                OFFSET  -0.000090 -41.133200  -0.000245
                CHANNELS 3 Zrotation Xrotation Yrotation
                JOINT RightToe
                {
                    OFFSET   0.000000  -6.358960  14.674500
                    CHANNELS 3 Zrotation Xrotation Yrotation
                    End Site
                    {
                        OFFSET   0.000000   0.000000   3.913200
                    }
                }
            }
        }
    }
}
MOTION
Frames: 4
Frame Time:   0.016667
  1.962840  89.972900  -0.116554  -0.504122  -3.770850  -1.243280  -0.038307   2.661770   0.196842  -0.085922   5.323410   0.396110   2.529590   1.238040  -0.048105   4.163180   2.496070   2.549560  -5.342880  -2.270660   3.837520 -72.123600  22.842500   2.621110  -3.373380  -5.883400 -14.633200  16.756500   3.795190   8.482590  40.092300  30.644500 -70.394800 -23.776800   0.003204   0.001478  -6.888400   0.016220   0.011526 -35.950900  11.214300 -15.010200 -30.627400   0.004280   0.006212 -21.439200   0.006634   0.004453 -31.811400   0.647445  -1.039790 -47.725800   0.001068  -0.004067 -31.785400   0.005880  -0.001298 -28.743400   0.591012  -1.072790 -40.379800  -0.002340  -0.005108 -26.893000   0.010327  -0.006858 -36.461800  -0.102794   0.154843 -54.693000   0.003082  -0.008511 -36.425500   0.002036   0.000714  12.365500   1.689320   5.715570  66.489500  17.163000  -0.801372   2.915320  -9.335340   7.309840 -23.187400 -13.175400  -5.779830 -31.284200  28.138700  68.683900  36.855200   0.004627  -0.006120  13.427600  -0.000962  -0.003806  34.752500   2.869300   4.125320  28.520900   0.000068   0.000735  19.964600   0.000000  -0.000556  28.377500  -1.815640  -3.356580  35.448500  -0.010729   0.005895  23.608700   0.000417   0.004203  28.414000  -4.621260  -8.469490  40.552800   0.001987  -0.001869  27.008200   0.002012  -0.003626  40.690100  -7.048500  -8.121430  61.791800   0.000777  -0.003471  41.153300  -0.003274  -0.013548   0.117752   5.966220   2.535950   0.039297   0.418882  12.727800  -4.778550  -4.672240   4.364460   0.000000   0.000000  -0.000000   0.258143   5.981810  -8.940550  -0.455658   1.813370 -10.583400  -6.964430  -0.389655   1.285260   0.000000   0.000000   0.000000
  1.958620  89.976200  -0.125088  -0.514102  -3.820050  -1.292350  -0.028982   2.695980   0.199299  -0.067480   5.391850   0.400628   2.531120   1.250030  -0.048123   4.165090   2.519820   2.538870  -5.361110  -2.279960   3.837570 -72.104700  22.942600   2.596020  -3.391510  -5.926510 -14.634500  16.744300   3.818380   8.481740  40.089200  30.661700 -70.423600 -23.786500   0.003209   0.001463  -6.893390   0.016226   0.011540 -35.951200  11.214400 -15.010100 -30.627600   0.004282   0.006219 -21.439300   0.006629   0.004457 -31.811400   0.647393  -1.039790 -47.725800   0.001064  -0.004005 -31.785400   0.005841  -0.001270 -28.743400   0.590963  -1.072790 -40.354700  -0.002341  -0.005056 -26.876300   0.010325  -0.006821 -36.443200  -0.102794   0.148663 -54.665200   0.003094  -0.008474 -36.407000   0.002042   0.000718  12.384400   1.705810   5.733990  66.379500  17.554900  -0.231185   2.844180  -9.465700   7.024450 -23.151800 -13.019300  -5.839410 -31.334900  28.251800  68.778600  36.785500   0.004627  -0.006113  13.392700  -0.000967  -0.003811  34.711700   2.890760   4.163470  28.486500   0.000072   0.000734  19.940600   0.000026  -0.000558  28.372800  -1.793080  -3.315260  35.407100  -0.010731   0.005890  23.581100   0.000418   0.004200  28.415300  -4.594970  -8.421240  40.487000   0.001982  -0.001867  26.964400   0.002014  -0.003630  40.648300  -7.001650  -8.077580  61.730400   0.000785  -0.003451  41.112400  -0.003279  -0.013545   0.125482   6.014260   2.542270   0.037809   0.419699  12.745600  -4.775690  -4.672540   4.389880  -0.000000   0.000000   0.000000   0.269722   6.068800  -8.921040  -0.455059   1.769840 -10.570000  -6.967980  -0.385165   1.302120   0.000000   0.000000  -0.000000
  1.950110  89.981700  -0.141413  -0.531863  -3.903770  -1.379100  -0.014615   2.757720   0.206771  -0.039274   5.515380   0.414975   2.539530   1.267340  -0.048163   4.178180   2.554190   2.515600  -5.389250  -2.310320   3.837670 -72.072200  23.113900   2.554390  -3.421080  -5.994160 -14.636400  16.724800   3.856300   8.479180  40.086000  30.678800 -70.452500 -23.801800   0.003220   0.001447  -6.900900   0.016241   0.011575 -35.951400  11.214400 -15.010000 -30.627800   0.004291   0.006233 -21.439500   0.006619   0.004467 -31.811400   0.647307  -1.039790 -47.725800   0.001058  -0.003873 -31.785400   0.005750  -0.001214 -28.743400   0.590882  -1.072790 -40.316300  -0.002341  -0.004950 -26.850600   0.010318  -0.006741 -36.415300  -0.102793   0.139358 -54.623300   0.003122  -0.008392 -36.379100   0.002057   0.000726  12.420400   1.722260   5.767140  66.169800  18.254500   0.753314   2.718530  -9.599330   6.563680 -23.112300 -12.770600  -5.925140 -31.434200  28.461700  68.960100  36.662700   0.004626  -0.006101  13.331300  -0.000973  -0.003817  34.658800   2.993250   4.319030  28.452100   0.000079   0.000734  19.916500   0.000078  -0.000563  28.375800  -1.701960  -3.146650  35.365600  -0.010738   0.005879  23.553500   0.000419   0.004191  28.429100  -4.491720  -8.229920  40.421300   0.001970  -0.001862  26.920600   0.002021  -0.003640  40.634500  -6.855640  -7.917420  61.668900   0.000806  -0.003405  41.071500  -0.003291  -0.013538   0.138969   6.092230   2.554340   0.035082   0.425572  12.775300  -4.771050  -4.675410   4.434600  -0.000000   0.000000  -0.000000   0.283523   6.173240  -8.892940  -0.454954   1.726400 -10.539500  -6.975060  -0.375217   1.332290  -0.000000   0.000000  -0.000000
  1.940430  89.986500  -0.158795  -0.548037  -3.972950  -1.459260  -0.005184   2.816230   0.218824  -0.021192   5.632430   0.438701   2.556950   1.276640  -0.048219   4.206820   2.572860   2.488530  -5.406970  -2.369040   3.834670 -72.048600  23.258400   2.526940  -3.442820  -6.036510 -14.636200  16.709800   3.889660   8.473140  40.073900  30.670600 -70.438000 -23.812700   0.003239   0.001463  -6.905930   0.016266   0.011627 -35.951400  11.214300 -15.010000 -30.627700   0.004310   0.006254 -21.439400   0.006604   0.004481 -31.808000   0.647220  -1.040450 -47.720700   0.001051  -0.003691 -31.782000   0.005620  -0.001142 -28.743400   0.590802  -1.073430 -40.292700  -0.002347  -0.004811 -26.834900   0.010305  -0.006627 -36.399700  -0.100060   0.134143 -54.599900   0.003162  -0.008277 -36.363500   0.002083   0.000736  12.459700   1.712630   5.802280  65.965700  18.896100   1.600410   2.611870  -9.583960   6.220280 -23.164500 -12.597200  -5.971260 -31.549200  28.686600  69.163800  36.547400   0.004613  -0.006090  13.273700  -0.000961  -0.003824  34.672100   3.248670   4.683310  28.478800   0.000086   0.000734  19.935200   0.000134  -0.000572  28.400800  -1.488210  -2.749720  35.463000  -0.010748   0.005862  23.618400   0.000422   0.004177  28.467900  -4.251630  -7.784320  40.526100   0.001951  -0.001853  26.990500   0.002031  -0.003657  40.719800  -6.558500  -7.557980  61.733100   0.000839  -0.003339  41.114200  -0.003305  -0.013527   0.150328   6.160340   2.567980   0.032129   0.440660  12.798500  -4.772030  -4.687320   4.475750   0.000000   0.000000   0.000000   0.300484   6.184960  -8.881270  -0.468479   1.765900 -10.496600  -6.983190  -0.361329   1.361100   0.000000   0.000000  -0.000000
